# xmcd CD database file
#
# Track frame offsets:
#	150
#	19575
#	47683
#	68742
#	81480
#	92730
#	110066
#	122510
#	137112
#	151437
#	167527
#
# Disc length: 2414 seconds
#
# Revision: 0
# Processed by: cddbd v1.5.2PL0 Copyright (c) Steve Scherf et al.
# Submitted via: CDex 1.50
#
DISCID=8c096c0b
DTITLE=Chris Barber's Jazzband and Mr. Acker Bilk's Paramount Jazz Band - The Best Of Barber and Bilk Vol. 2
DYEAR=1957
DGENRE=Jazz
TTITLE0=Chris Barber's Jazz Band - Bugle Call Rag
TTITLE1=Chris Barber's Jazz Band - Beale Street Blues
TTITLE2=Chris Barber's Jazz Band - Magnolia's Wedding Day
TTITLE3=Chris Barber's Jazz Band - Petite Fleur
TTITLE4=Chris Barber's Jazz Band - Bye And Bye
TTITLE5=Mr. Acker Bilk's Paramount Jazz - Louisian-I-Ay
TTITLE6=Mr. Acker Bilk's Paramount Jazz - El Abanico
TTITLE7=Mr. Acker Bilk's Paramount Jazz - Carry Me Back
TTITLE8=Mr. Acker Bilk's Paramount Jazz - Travelling Blues
TTITLE9=Mr. Acker Bilk's Paramount Jazz - Delia Gone
TTITLE10=Mr. Acker Bilk's Paramount Jazz - Under the Double Eagle
EXTD=YEAR: 1957
EXTT0=
EXTT1=
EXTT2=
EXTT3=
EXTT4=
EXTT5=
EXTT6=
EXTT7=
EXTT8=
EXTT9=
EXTT10=
PLAYORDER=
